<svg xmlns="http://www.w3.org/2000/svg" xmlns:xlink="http://www.w3.org/1999/xlink" viewBox="0 0 1193.94 504.89"><defs><style>.cls-1{fill:url(#linear-gradient);}.cls-2{font-size:253.14px;fill:#333c48;font-family:Prototype;}.cls-3{letter-spacing:-0.11em;}.cls-4{letter-spacing:-0.03em;}.cls-5{letter-spacing:0em;}</style><linearGradient id="linear-gradient" x1="242.67" x2="242.67" y2="485.33" gradientUnits="userSpaceOnUse"><stop offset="0" stop-color="#f89d47"/><stop offset="0.22" stop-color="#f69942"/><stop offset="0.47" stop-color="#ef8c35"/><stop offset="0.74" stop-color="#e4771e"/><stop offset="0.96" stop-color="#d85f05"/></linearGradient></defs><title>Asset 1</title><g id="Layer_2" data-name="Layer 2"><g id="Layer_1-2" data-name="Layer 1"><path class="cls-1" d="M478.19,214.24h7.1a0,0,0,0,0,0-.05v-158A56.21,56.21,0,0,0,429.14,0H236.51a75.9,75.9,0,0,0-29,5.6,130.79,130.79,0,0,0-44.14,30.11C139.46,60.49,125,94.67,125,132.5c0,77.82,59.63,140.88,137.42,140.88h104a0,0,0,0,0,.05-.05V228.45A19.53,19.53,0,0,1,387.18,209c10.33.66,18.18,9.62,18.18,20v49.46A34.54,34.54,0,0,1,370.8,313H261.42A174.79,174.79,0,0,1,86.63,138.18v-.31A182.63,182.63,0,0,1,149.15.08a0,0,0,0,0,0-.08H56.28A56.28,56.28,0,0,0,0,56.28V429.14a56.21,56.21,0,0,0,56.23,56.19h79.34a0,0,0,0,0,.05,0V419.7c0-10,8.19-18.75,18.21-18.71a18.1,18.1,0,0,1,18,18.13v66.17a0,0,0,0,0,0,0H295.28s.05,0,.05,0V411.63a50.32,50.32,0,0,1,50.3-50.33h42.29a17.4,17.4,0,0,1,17.44,17.4c0,9.61-8.38,17.47-18,17.47h-38.3a17.53,17.53,0,0,0-17.52,17.52v71.6a0,0,0,0,0,.05,0h97.49a56.24,56.24,0,0,0,56.24-56.24V401a0,0,0,0,0,0-.05h-7.1a18.12,18.12,0,0,1,0-36.23h7.1a0,0,0,0,0,0,0V325.78a0,0,0,0,0,0,0h-6.51c-10.09,0-18.81-8.25-18.68-18.33a18.12,18.12,0,0,1,5.3-12.59,17.92,17.92,0,0,1,12.79-5.31h7.1a0,0,0,0,0,0-.05V250.51a0,0,0,0,0,0,0h-6.53c-9.6,0-17.95-7.24-18.62-16.82a18.11,18.11,0,0,1,18.05-19.41Zm-88.06-69.77,0,0a19,19,0,0,1-22.7,7c-15.61-6.07-28.43-3-36.78,1a18.75,18.75,0,0,1-21.39-4.06h0A19,19,0,0,1,315,117.87a83.58,83.58,0,0,1,66.25-1.93A19.09,19.09,0,0,1,390.13,144.47Z"/><text class="cls-2" transform="translate(593.24 229.42)">ZU<tspan class="cls-3" x="310.6" y="0">T</tspan><tspan x="420.72" y="0">A</tspan><tspan x="0" y="217.75">A</tspan><tspan class="cls-4" x="179.98" y="217.75">B</tspan><tspan class="cls-5" x="332.63" y="217.75">A</tspan></text></g></g></svg>